<svg width="4500" height="4500" xmlns="http://www.w3.org/2000/svg" xmlns:svg="http://www.w3.org/2000/svg" version="1.1">

 <g class="layer">
  <title>Layer 1</title>
  <g id="layer1" transform="translate(-3450.082,4128.5947)">
   <g id="g4865" transform="translate(-2954.9241,-12262.54)">
    <path clip-rule="nonzero" d="m12743.63,12612.5a75.01,75.01 0 0 0 -75,75l0,937.5a75.01,75.01 0 0 0 75,75l1875,0a75.01,75.01 0 0 0 75,-75l0,-937.5a75.01,75.01 0 0 0 -75,-75l-1875,0zm75,150l1725,0l0,787.5l-1725,0l0,-787.5zm2629.96,37.46a75.01,75.01 0 0 0 -40.72,10.94l-378.24,223.25a75.01,75.01 0 0 0 -19.89,16.62a75.01,75.01 0 0 0 -12.62,87.77l196.9,368.1a75.01,75.01 0 1 0 132.26,-70.75l-130.41,-243.82c304.35,46.6 594.39,194.6 808.11,415.88c245.49,254.19 390.91,605.64 396.78,958.96c4.39,263.86 -67.34,529.56 -203.9,755.36c-136.56,225.81 -338.57,412.71 -574.28,531.36a75.01,75.01 0 1 0 67.44,133.98c261.38,-131.56 483.76,-337.32 635.19,-587.71c151.44,-250.4 230.39,-542.89 225.53,-835.48c-6.52,-392.56 -166.11,-778.27 -438.86,-1060.67c-221.1,-228.92 -512.62,-385.89 -823.95,-447.88l196.18,-115.79a75.01,75.01 0 0 0 -35.52,-140.12zm-2704.96,1262.54a75.01,75.01 0 0 0 -75,75l0,937.5a75.01,75.01 0 0 0 75,75l1875,0a75.01,75.01 0 0 0 75,-75l0,-937.5a75.01,75.01 0 0 0 -75,-75l-1875,0zm75,150l1725,0l0,787.5l-1725,0l0,-787.5zm562.5,1200a75.01,75.01 0 0 0 -75,75l0,937.5a75.01,75.01 0 0 0 75,75l1875,0a75.01,75.01 0 0 0 75,-75l0,-937.5a75.01,75.01 0 0 0 -75,-75l-1875,0zm75,150l1725,0l0,787.5l-1725,0l0,-787.5z" display="inline" enable-background="accumulate" fill="#505050" fill-rule="nonzero" id="rect4446" stroke-dashoffset="0" stroke-linecap="round" stroke-linejoin="round" stroke-miterlimit="4" stroke-width="150" transform="translate(-5954.7863,-4172.3044)"/>
    <path d="m12818.63,14212.5l0,787.5l1725,0l0,-787.5l-1725,0z" fill="#FF9D9C" id="rect4860" stroke-dashoffset="0" stroke-linecap="round" stroke-linejoin="round" stroke-miterlimit="4" stroke-width="150" transform="translate(-5954.7863,-4172.3044)"/>
   </g>
  </g>
  <rect fill="#FEE7B5" height="796.77" id="svg_1" stroke="#000000" width="1735.48" x="456.45" y="454.84"/>
  <rect fill="#FEE7B5" height="803.23" id="svg_2" stroke="#000000" width="1735.48" x="1088.71" y="3251.61"/>
 </g>
</svg>