<?xml version="1.0" ?><!DOCTYPE svg  PUBLIC '-//W3C//DTD SVG 1.1//EN'  'http://www.w3.org/Graphics/SVG/1.1/DTD/svg11.dtd'><svg height="42px" style="fill-rule:evenodd;clip-rule:evenodd;stroke-linejoin:round;stroke-miterlimit:2;" version="1.1" width="42px" xml:space="preserve" xmlns="http://www.w3.org/2000/svg" xmlns:serif="http://www.serif.com/" xmlns:xlink="http://www.w3.org/1999/xlink"><path fill="#505050" d="M4.626,29.713c-0.278,0.327 -0.394,0.677 -0.394,1.019c0,0.385 0.192,0.834 0.64,1.237c-0.056,0.047 -0.107,0.094 -0.152,0.141c-0.347,0.356 -0.488,0.744 -0.488,1.122c0,0.305 0.121,0.65 0.394,0.981c-0.278,0.327 -0.394,0.677 -0.394,1.019c0,0.595 0.459,1.345 1.612,1.838c1.573,0.674 4.739,1.162 8.388,1.162c3.65,0 6.816,-0.488 8.389,-1.162c1.153,-0.493 1.611,-1.243 1.611,-1.838c0,-0.342 -0.115,-0.692 -0.393,-1.019c0.273,-0.331 0.393,-0.676 0.393,-0.981c0,-0.378 -0.14,-0.766 -0.487,-1.122c-0.045,-0.047 -0.096,-0.094 -0.152,-0.141c0.448,-0.403 0.639,-0.852 0.639,-1.237c0,-0.342 -0.115,-0.692 -0.393,-1.019c0.273,-0.331 0.393,-0.676 0.393,-0.981c0,-0.594 -0.458,-1.344 -1.611,-1.838c-1.573,-0.674 -4.739,-1.162 -8.389,-1.162c-3.649,0 -6.815,0.488 -8.388,1.162c-1.153,0.494 -1.612,1.244 -1.612,1.838c0,0.305 0.121,0.65 0.394,0.981Zm9.877,0.019l-0.541,-0c-2.75,-0.019 -5.179,-0.314 -6.702,-0.776c-0.195,-0.059 -0.397,-0.142 -0.574,-0.224c0.177,-0.081 0.379,-0.164 0.574,-0.223c1.573,-0.477 4.112,-0.777 6.972,-0.777c2.861,0 5.4,0.3 6.973,0.777c0.195,0.059 0.396,0.142 0.574,0.223c-0.178,0.082 -0.379,0.165 -0.574,0.224c-1.523,0.462 -3.952,0.757 -6.702,0.776Z"/><path fill="#505050" d="M14.232,4c-5.647,0 -10.232,4.585 -10.232,10.232c0,5.648 4.585,10.233 10.232,10.233c5.648,-0 10.233,-4.585 10.233,-10.233c-0,-5.647 -4.585,-10.232 -10.233,-10.232Zm-4.191,15.838l-0.879,0.879c1.151,0.901 2.547,1.503 4.07,1.688l0,-1.244c-1.185,-0.169 -2.275,-0.637 -3.191,-1.323Zm8.383,-0c-0.917,0.686 -2.006,1.154 -3.192,1.323l0,1.244c1.524,-0.185 2.92,-0.787 4.071,-1.688l-0.879,-0.879Zm-11.121,-4.606l-1.243,0c0.185,1.524 0.787,2.92 1.688,4.071l0.879,-0.879c-0.686,-0.917 -1.154,-2.006 -1.324,-3.192Zm15.102,0l-1.244,0c-0.169,1.186 -0.637,2.276 -1.323,3.192l0.879,0.879c0.901,-1.151 1.503,-2.547 1.688,-4.071Zm-8.173,-6c2.76,0 5,2.241 5,5c0,2.76 -2.24,5 -5,5c-2.759,0 -5,-2.24 -5,-5c0,-2.759 2.241,-5 5,-5Zm-6.484,-0.07c-0.901,1.151 -1.503,2.547 -1.688,4.07l1.243,0c0.17,-1.185 0.638,-2.275 1.324,-3.191l-0.879,-0.879Zm12.969,0l-0.879,0.879c0.686,0.917 1.154,2.006 1.323,3.191l1.244,0c-0.185,-1.523 -0.787,-2.919 -1.688,-4.07Zm-7.485,-3.102c-1.523,0.185 -2.919,0.787 -4.07,1.688l0.879,0.879c0.917,-0.686 2.006,-1.154 3.191,-1.324l0,-1.243Zm2,0l0,1.243c1.186,0.17 2.276,0.638 3.192,1.324l0.879,-0.879c-1.151,-0.901 -2.547,-1.503 -4.071,-1.688Z"/><path fill="#505050" d="M13.5,11.32c-0.718,0.215 -1.243,0.881 -1.243,1.67c0,0.962 0.781,1.742 1.743,1.742c0.41,0 0.743,0.333 0.743,0.743c-0,0.41 -0.333,0.743 -0.743,0.743c-0.296,0 -0.552,-0.174 -0.672,-0.425c-0.118,-0.249 -0.417,-0.355 -0.666,-0.237c-0.249,0.119 -0.355,0.417 -0.237,0.667c0.21,0.441 0.6,0.78 1.075,0.922l-0,0.638c-0,0.276 0.224,0.5 0.5,0.5c0.276,0 0.5,-0.224 0.5,-0.5l-0,-0.638c0.718,-0.215 1.243,-0.882 1.243,-1.67c-0,-0.962 -0.781,-1.743 -1.743,-1.743c-0.41,0 -0.743,-0.332 -0.743,-0.742c0,-0.41 0.333,-0.743 0.743,-0.743c0.296,-0 0.552,0.174 0.672,0.425c0.118,0.249 0.417,0.355 0.666,0.237c0.249,-0.119 0.355,-0.418 0.237,-0.667c-0.21,-0.441 -0.6,-0.78 -1.075,-0.922l-0,-0.638c-0,-0.276 -0.224,-0.5 -0.5,-0.5c-0.276,-0 -0.5,0.224 -0.5,0.5l-0,0.638Z"/><path fill="#505050" d="M13.25,11.143c-0.728,0.296 -1.243,1.012 -1.243,1.847c0,1.1 0.893,1.992 1.993,1.992c0.272,0 0.493,0.221 0.493,0.493c-0,0.272 -0.221,0.493 -0.493,0.493c-0.197,0 -0.366,-0.115 -0.446,-0.282c-0.178,-0.374 -0.625,-0.533 -0.999,-0.355c-0.374,0.177 -0.533,0.625 -0.355,0.999c0.213,0.448 0.589,0.804 1.05,0.992c-0,-0 -0,0.461 -0,0.461c-0,0.414 0.336,0.75 0.75,0.75c0.414,0 0.75,-0.336 0.75,-0.75c-0,0 -0,-0.461 -0,-0.461c0.728,-0.296 1.243,-1.012 1.243,-1.847c-0,-1.1 -0.893,-1.993 -1.993,-1.993c-0.272,0 -0.493,-0.22 -0.493,-0.492c0,-0.272 0.221,-0.493 0.493,-0.493c0.197,-0 0.366,0.115 0.446,0.282c0.178,0.374 0.625,0.533 0.999,0.355c0.374,-0.177 0.533,-0.625 0.355,-0.999c-0.213,-0.448 -0.589,-0.804 -1.05,-0.992c-0,0 -0,-0.461 -0,-0.461c0,-0.414 -0.336,-0.75 -0.75,-0.75c-0.414,-0 -0.75,0.336 -0.75,0.75l0,0.461Z"/><path fill="#505050" d="M29,22l0,-10c0,-0.552 0.448,-1 1,-1l4,-0c0.552,-0 1,0.448 1,1l0,10c-0,-0 2,-0 2,-0c0.375,-0 0.718,0.209 0.889,0.542c0.172,0.333 0.142,0.734 -0.075,1.039l-5,7c-0.188,0.263 -0.491,0.419 -0.814,0.419c-0.323,0 -0.626,-0.156 -0.814,-0.419l-5,-7c-0.217,-0.305 -0.247,-0.706 -0.075,-1.039c0.171,-0.333 0.514,-0.542 0.889,-0.542l2,0Zm2,1c0,0.552 -0.448,1 -1,1l-1.057,-0c0,-0 3.057,4.28 3.057,4.28c0,-0 3.057,-4.28 3.057,-4.28c-0,-0 -1.057,-0 -1.057,-0c-0.552,-0 -1,-0.448 -1,-1l0,-10c0,-0 -2,-0 -2,-0c0,-0 0,10 0,10Z"/></svg>