<?xml version="1.0" ?><svg id="Layer_1" style="enable-background:new 0 0 50 50;" version="1.1" viewBox="0 0 50 50" xml:space="preserve" xmlns="http://www.w3.org/2000/svg" xmlns:xlink="http://www.w3.org/1999/xlink"><style type="text/css">
	.st0{fill:#F0C4DB;}
	.st1{fill:#FF9D9C;}
	.st2{fill:#9BEAF9;}
	.st3{fill:#E9F4BC;}
	.st4{fill:#505050;}
	.st5{fill:#FEBECC;}
	.st6{fill:#FFFFFF;}
	.st7{fill:#FDE4A1;}
	.st8{fill:#FEE7B5;}
	.st9{fill:transparent;}
	.st10{fill:#F2C6DD;}
	.st11{opacity:0.1;}
</style><g><path class="st9" d="M19.68,2.13c0,11.6,9.4,21,21,21c2.84,0,5.54-0.57,8.01-1.59V1.13H19.73C19.72,1.46,19.68,1.79,19.68,2.13z"/><g><path class="st1" d="M46.61,21.39c-0.41-0.41-0.98-0.68-1.6-0.71c-1.42-0.08-2.57,1.15-2.57,2.57v7.83    c-0.1-0.44-0.32-0.86-0.66-1.19c-0.95-0.96-2.5-0.95-3.46,0l-5.1,5.1c-1.05,1.05-1.63,2.47-1.63,3.94v6.22h8.31v-2.89l6.39-6.38    c0.67-0.67,1.05-1.58,1.05-2.52V23.12C47.32,22.45,47.05,21.84,46.61,21.39z"/><rect class="st2" height="2.98" width="12" x="29.9" y="45.14"/><path class="st1" d="M16.16,34.98l-5.1-5.1c-0.95-0.95-2.5-0.96-3.46,0c-0.34,0.34-0.56,0.76-0.66,1.19v-7.83    c0-1.42-1.16-2.65-2.57-2.57c-0.62,0.03-1.19,0.3-1.6,0.71c-0.44,0.44-0.71,1.06-0.71,1.73v10.23c0,0.95,0.38,1.85,1.05,2.52    l6.39,6.38v2.89h8.31v-6.22C17.8,37.44,17.21,36.03,16.16,34.98z"/><rect class="st2" height="2.98" transform="matrix(-1 -4.485269e-11 4.485269e-11 -1 26.9461 93.2678)" width="12" x="7.47" y="45.14"/><circle class="st3" cx="24.69" cy="16.22" r="14.09"/><path class="st7" d="M24.69,26.31c-5.56,0-10.09-4.53-10.09-10.09S19.12,6.12,24.69,6.12s10.09,4.53,10.09,10.09    S30.25,26.31,24.69,26.31z"/><g><path class="st4" d="M47.14,20.86c-0.56-0.56-1.31-0.9-2.09-0.93c-0.85-0.04-1.67,0.26-2.31,0.86c-0.67,0.64-1.06,1.53-1.06,2.46     v5.62c-0.49-0.29-1.05-0.45-1.63-0.45c0,0,0,0,0,0c-0.85,0-1.66,0.33-2.26,0.94l-5.1,5.1c-1.2,1.2-1.85,2.78-1.85,4.48v5.47     h-0.93c-0.41,0-0.75,0.34-0.75,0.75v2.98c0,0.41,0.34,0.75,0.75,0.75h12c0.41,0,0.75-0.34,0.75-0.75v-2.98     c0-0.41-0.34-0.75-0.75-0.75h-1.26v-1.83l6.16-6.16c0.82-0.81,1.27-1.9,1.27-3.05V23.12C48.08,22.27,47.75,21.47,47.14,20.86z      M41.16,47.37h-10.5v-1.48h0.93h8.31h1.26V47.37z M46.58,33.35c0,0.75-0.29,1.46-0.83,1.99l-6.38,6.38     c-0.14,0.14-0.22,0.33-0.22,0.53v2.14h-6.81v-5.47c0-1.29,0.5-2.5,1.42-3.41l5.1-5.1c0.32-0.32,0.72-0.48,1.2-0.5     c0.45,0,0.87,0.18,1.2,0.5c0.19,0.19,0.31,0.42,0.4,0.67c-0.06,0.17-0.14,0.34-0.26,0.5c-0.04,0.06-0.09,0.11-0.19,0.22     l-3.8,4.64c-0.26,0.32-0.22,0.79,0.1,1.06c0.14,0.11,0.31,0.17,0.48,0.17c0.22,0,0.43-0.09,0.58-0.27l3.75-4.58     c0.11-0.1,0.2-0.22,0.29-0.33c0.26-0.34,0.43-0.72,0.53-1.12c0.01-0.02,0.01-0.03,0.02-0.05c0.01-0.03,0.02-0.06,0.03-0.09     c0.01-0.02,0-0.05,0-0.07c0-0.03,0.02-0.06,0.02-0.08v-7.83c0-0.51,0.21-1.01,0.59-1.37c0.33-0.32,0.77-0.47,1.2-0.45     c0.42,0.02,0.81,0.2,1.1,0.49c0.32,0.33,0.5,0.75,0.5,1.2V33.35z"/><path class="st4" d="M19.48,44.39h-0.93v-5.47c0-1.69-0.66-3.28-1.85-4.48l-5.1-5.1c-0.6-0.6-1.41-0.94-2.26-0.94c0,0,0,0-0.01,0     c-0.58,0-1.14,0.16-1.63,0.45v-5.61c0-0.92-0.39-1.82-1.06-2.46c-0.64-0.6-1.46-0.92-2.3-0.86c-0.79,0.04-1.53,0.37-2.1,0.94     c-0.6,0.61-0.93,1.41-0.93,2.26v10.23c0,1.15,0.45,2.24,1.26,3.05l6.17,6.16v1.83H7.47c-0.41,0-0.75,0.34-0.75,0.75v2.98     c0,0.41,0.34,0.75,0.75,0.75h12c0.41,0,0.75-0.34,0.75-0.75v-2.98C20.23,44.73,19.89,44.39,19.48,44.39z M10.02,41.73l-6.38-6.38     c-0.53-0.53-0.83-1.24-0.83-1.99V23.12c0-0.45,0.18-0.88,0.49-1.2c0.3-0.3,0.69-0.48,1.11-0.5c0.44-0.03,0.86,0.14,1.2,0.45     c0.37,0.35,0.59,0.85,0.59,1.37v7.83c0,0.03,0.01,0.05,0.02,0.08c0,0.02,0,0.05,0,0.07c0.01,0.03,0.02,0.06,0.03,0.09     c0,0.01,0.01,0.03,0.01,0.04c0.1,0.4,0.27,0.78,0.53,1.12c0.09,0.12,0.19,0.23,0.24,0.28l3.8,4.64c0.15,0.18,0.36,0.27,0.58,0.27     c0.17,0,0.34-0.06,0.48-0.17c0.32-0.26,0.37-0.73,0.1-1.06l-3.85-4.7c-0.05-0.05-0.1-0.11-0.15-0.17     c-0.12-0.16-0.2-0.33-0.25-0.5c0.08-0.25,0.21-0.48,0.4-0.68c0.32-0.32,0.74-0.5,1.19-0.5c0,0,0,0,0,0c0.45,0,0.88,0.18,1.2,0.5     l5.1,5.1c0.91,0.91,1.41,2.13,1.41,3.41v5.47h-6.81v-2.14C10.24,42.06,10.16,41.87,10.02,41.73z M18.73,47.37H8.22v-1.48h1.26     h8.31h0.93V47.37z"/><path class="st4" d="M11.82,10.42c0.11,0.05,0.23,0.08,0.35,0.08c0.28,0,0.53-0.15,0.67-0.4c0.18-0.37,0.04-0.83-0.33-1.01     c-0.36-0.19-0.83-0.04-1.01,0.32v0.01c-0.09,0.17-0.11,0.37-0.05,0.56C11.51,10.17,11.64,10.33,11.82,10.42z"/><path class="st4" d="M39.53,16.21c0-8.18-6.65-14.84-14.84-14.84c-4.79,0-9.31,2.33-12.09,6.24c-0.24,0.34-0.16,0.81,0.17,1.05     c0.33,0.23,0.82,0.15,1.05-0.18c2.51-3.51,6.57-5.61,10.87-5.61c7.35,0.02,13.33,6,13.34,13.34     c-0.01,7.35-5.99,13.33-13.34,13.35c-7.34-0.02-13.32-6-13.34-13.35c0-1.49,0.25-2.97,0.74-4.38c0.13-0.39-0.08-0.81-0.47-0.95     c-0.37-0.13-0.82,0.08-0.95,0.46c-0.54,1.56-0.82,3.2-0.82,4.87c0,8.19,6.66,14.84,14.84,14.85     C32.88,31.05,39.53,24.4,39.53,16.21z"/><path class="st4" d="M24.69,27.06c5.98,0,10.84-4.86,10.84-10.84S30.67,5.37,24.69,5.37c-5.98,0-10.84,4.86-10.84,10.84     S18.71,27.06,24.69,27.06z M24.69,6.87c5.15,0,9.34,4.19,9.34,9.34s-4.19,9.34-9.34,9.34c-5.15,0-9.34-4.19-9.34-9.34     S19.54,6.87,24.69,6.87z"/><path class="st4" d="M24.69,19.86c-0.8,0-1.45-0.65-1.45-1.45c0-0.41-0.34-0.75-0.75-0.75s-0.75,0.34-0.75,0.75     c0,1.36,0.94,2.5,2.2,2.84v0.49c0,0.41,0.34,0.75,0.75,0.75s0.75-0.34,0.75-0.75v-0.49c1.26-0.33,2.2-1.47,2.2-2.84     c0-1.63-1.32-2.95-2.95-2.95c-0.8,0-1.45-0.65-1.45-1.45s0.65-1.45,1.45-1.45s1.45,0.65,1.45,1.45c0,0.41,0.34,0.75,0.75,0.75     s0.75-0.34,0.75-0.75c0-1.36-0.94-2.5-2.2-2.84v-0.49c0-0.41-0.34-0.75-0.75-0.75s-0.75,0.34-0.75,0.75v0.49     c-1.26,0.33-2.2,1.47-2.2,2.84c0,1.63,1.32,2.95,2.95,2.95c0.8,0,1.45,0.65,1.45,1.45S25.49,19.86,24.69,19.86z"/></g></g></g></svg>